<?xml version="1.0" standalone="no"?>
<!DOCTYPE svg PUBLIC "-//W3C//DTD SVG 20010904//EN"
 "http://www.w3.org/TR/2001/REC-SVG-20010904/DTD/svg10.dtd">
<svg version="1.0" xmlns="http://www.w3.org/2000/svg"
 width="784.000000pt" height="784.000000pt" viewBox="0 0 784.000000 784.000000"
 preserveAspectRatio="xMidYMid meet">
<metadata>
Created by potrace 1.14, written by Peter Selinger 2001-2017
</metadata>
<g transform="translate(0.000000,784.000000) scale(0.100000,-0.100000)"
fill="#000000" stroke="none">
<path d="M3634 7674 c-60 -31 -557 -281 -1104 -555 -547 -274 -1124 -564
-1283 -644 l-287 -145 112 -98 c62 -53 121 -103 130 -111 15 -11 171 64 1275
619 692 348 1264 637 1271 642 14 12 18 348 3 348 -5 0 -58 -25 -117 -56z"/>
<path d="M4080 7557 l0 -174 140 -67 c77 -37 656 -323 1286 -636 l1145 -569
130 106 c71 59 129 110 129 113 0 4 -98 54 -217 113 -192 93 -1829 905 -2369
1174 -110 55 -210 104 -222 107 l-22 7 0 -174z"/>
<path d="M646 5643 c-59 -241 -229 -926 -378 -1522 -148 -596 -268 -1085 -266
-1086 4 -4 337 71 344 77 5 5 79 301 475 1898 110 443 202 812 204 821 4 11
-36 52 -129 132 -74 65 -136 117 -138 117 -2 0 -52 -197 -112 -437z"/>
<path d="M6980 5968 c-85 -70 -134 -117 -133 -128 2 -16 116 -499 389 -1655
74 -313 158 -667 185 -785 28 -118 55 -232 60 -252 5 -20 17 -39 27 -42 34
-11 327 -74 330 -71 2 1 -54 243 -123 536 -69 294 -173 734 -231 979 -58 245
-129 546 -159 670 -29 124 -86 365 -126 535 -40 171 -75 313 -78 317 -3 4 -67
-43 -141 -104z"/>
<path d="M5534 5470 c-65 -14 -109 -35 -154 -76 -73 -66 -101 -140 -125 -338
-24 -198 -27 -206 -107 -283 -80 -78 -132 -173 -172 -315 -25 -87 -56 -278
-56 -343 l0 -35 691 0 692 0 -7 108 c-14 222 -56 391 -121 489 -19 29 -64 75
-99 103 -42 33 -68 62 -75 83 -6 18 -17 104 -26 192 -26 260 -65 350 -175 397
-51 22 -200 33 -266 18z"/>
<path d="M2130 5380 c-24 -5 -68 -21 -97 -35 -111 -55 -157 -152 -182 -387
-20 -181 -25 -194 -105 -273 -79 -78 -121 -150 -161 -270 -31 -97 -65 -285
-65 -366 l0 -59 688 2 687 3 -3 85 c-9 218 -54 406 -121 506 -21 31 -67 80
-102 108 -76 62 -82 77 -98 266 -23 257 -57 341 -164 394 -47 24 -72 29 -145
32 -48 2 -107 -1 -132 -6z"/>
<path d="M232 2755 c-79 -18 -145 -35 -148 -37 -2 -3 114 -153 258 -334 144
-181 505 -635 803 -1009 298 -374 623 -783 723 -908 l181 -228 78 154 77 155
-75 94 c-41 51 -443 555 -893 1121 -649 816 -822 1027 -839 1026 -12 0 -86
-16 -165 -34z"/>
<path d="M6520 1673 c-492 -614 -896 -1121 -898 -1128 -3 -13 137 -305 147
-304 3 0 189 228 412 507 371 463 954 1190 1402 1746 97 121 175 222 173 224
-7 7 -300 72 -321 71 -14 0 -274 -317 -915 -1116z"/>
<path d="M3918 2730 c-142 -19 -226 -87 -273 -220 -9 -24 -25 -115 -36 -202
-11 -87 -24 -171 -30 -185 -6 -15 -41 -58 -79 -94 -129 -126 -185 -286 -225
-646 l-5 -43 690 0 690 0 0 73 c0 303 -91 548 -236 638 -53 33 -64 66 -84 254
-20 183 -31 238 -61 296 -24 48 -89 103 -136 117 -56 15 -150 21 -215 12z"/>
<path d="M2420 250 l-80 -160 1565 0 c861 0 1565 2 1565 3 0 2 -34 74 -75 160
l-75 157 -1410 0 -1410 0 -80 -160z"/>
</g>
</svg>
